<mxfile host="app.diagrams.net" modified="2024-01-13T23:46:40.184Z" agent="Mozilla/5.0 (Windows NT 10.0; Win64; x64) AppleWebKit/537.36 (KHTML, like Gecko) Chrome/120.0.0.0 Safari/537.36 Edg/120.0.0.0" etag="_h4l4KYbv2EqvXlWXdpM" version="22.1.18" type="github">
  <diagram name="Page-1" id="Xh1dRvrSIB0jsGhmqVAD">
    <mxGraphModel dx="714" dy="537" grid="1" gridSize="10" guides="1" tooltips="1" connect="1" arrows="1" fold="1" page="1" pageScale="1" pageWidth="850" pageHeight="1100" math="0" shadow="0">
      <root>
        <mxCell id="0" />
        <mxCell id="1" parent="0" />
        <mxCell id="CrRhmm2XXAZZn54EKV6A-4" style="edgeStyle=orthogonalEdgeStyle;rounded=0;orthogonalLoop=1;jettySize=auto;html=1;entryX=0;entryY=0.5;entryDx=0;entryDy=0;" edge="1" parent="1" source="CrRhmm2XXAZZn54EKV6A-2" target="CrRhmm2XXAZZn54EKV6A-3">
          <mxGeometry relative="1" as="geometry">
            <Array as="points">
              <mxPoint x="340" y="195" />
              <mxPoint x="340" y="275" />
            </Array>
          </mxGeometry>
        </mxCell>
        <mxCell id="CrRhmm2XXAZZn54EKV6A-2" value="Interrupt Service &lt;br&gt;Routine" style="rounded=0;whiteSpace=wrap;html=1;shadow=1;fillColor=#f5f5f5;fontColor=#333333;strokeColor=#666666;" vertex="1" parent="1">
          <mxGeometry x="145" y="165" width="160" height="60" as="geometry" />
        </mxCell>
        <mxCell id="CrRhmm2XXAZZn54EKV6A-20" value="" style="edgeStyle=orthogonalEdgeStyle;rounded=0;orthogonalLoop=1;jettySize=auto;html=1;" edge="1" parent="1" source="CrRhmm2XXAZZn54EKV6A-3" target="CrRhmm2XXAZZn54EKV6A-19">
          <mxGeometry relative="1" as="geometry" />
        </mxCell>
        <mxCell id="CrRhmm2XXAZZn54EKV6A-3" value="&lt;b&gt;Serial IRQ handler&lt;/b&gt;&lt;br&gt;checks for $81, $50" style="rounded=0;whiteSpace=wrap;html=1;shadow=1;fillColor=#dae8fc;strokeColor=#6c8ebf;" vertex="1" parent="1">
          <mxGeometry x="380" y="245" width="200" height="60" as="geometry" />
        </mxCell>
        <mxCell id="CrRhmm2XXAZZn54EKV6A-7" value="" style="group" vertex="1" connectable="0" parent="1">
          <mxGeometry x="15" y="150" width="87" height="60" as="geometry" />
        </mxCell>
        <mxCell id="CrRhmm2XXAZZn54EKV6A-5" value="" style="html=1;verticalLabelPosition=bottom;align=center;labelBackgroundColor=#ffffff;verticalAlign=top;strokeWidth=2;strokeColor=#0080F0;shadow=0;dashed=0;shape=mxgraph.ios7.icons.flash;" vertex="1" parent="CrRhmm2XXAZZn54EKV6A-7">
          <mxGeometry x="34.5" y="30" width="18" height="30" as="geometry" />
        </mxCell>
        <mxCell id="CrRhmm2XXAZZn54EKV6A-6" value="Timer interrupt" style="text;html=1;strokeColor=none;fillColor=none;align=center;verticalAlign=middle;whiteSpace=wrap;rounded=0;" vertex="1" parent="CrRhmm2XXAZZn54EKV6A-7">
          <mxGeometry width="87" height="30" as="geometry" />
        </mxCell>
        <mxCell id="CrRhmm2XXAZZn54EKV6A-8" value="" style="group" vertex="1" connectable="0" parent="1">
          <mxGeometry x="10" y="215" width="87" height="60" as="geometry" />
        </mxCell>
        <mxCell id="CrRhmm2XXAZZn54EKV6A-9" value="" style="html=1;verticalLabelPosition=bottom;align=center;labelBackgroundColor=#ffffff;verticalAlign=top;strokeWidth=2;strokeColor=#0080F0;shadow=0;dashed=0;shape=mxgraph.ios7.icons.flash;" vertex="1" parent="CrRhmm2XXAZZn54EKV6A-8">
          <mxGeometry x="34.5" y="30" width="18" height="30" as="geometry" />
        </mxCell>
        <mxCell id="CrRhmm2XXAZZn54EKV6A-10" value="Serial interrupt" style="text;html=1;strokeColor=none;fillColor=none;align=center;verticalAlign=middle;whiteSpace=wrap;rounded=0;" vertex="1" parent="CrRhmm2XXAZZn54EKV6A-8">
          <mxGeometry width="87" height="30" as="geometry" />
        </mxCell>
        <mxCell id="CrRhmm2XXAZZn54EKV6A-11" style="edgeStyle=orthogonalEdgeStyle;rounded=0;orthogonalLoop=1;jettySize=auto;html=1;entryX=0;entryY=0.5;entryDx=0;entryDy=0;" edge="1" parent="1" source="CrRhmm2XXAZZn54EKV6A-5" target="CrRhmm2XXAZZn54EKV6A-2">
          <mxGeometry relative="1" as="geometry" />
        </mxCell>
        <mxCell id="CrRhmm2XXAZZn54EKV6A-12" style="edgeStyle=orthogonalEdgeStyle;rounded=0;orthogonalLoop=1;jettySize=auto;html=1;entryX=0;entryY=0.5;entryDx=0;entryDy=0;" edge="1" parent="1" source="CrRhmm2XXAZZn54EKV6A-9" target="CrRhmm2XXAZZn54EKV6A-2">
          <mxGeometry relative="1" as="geometry" />
        </mxCell>
        <mxCell id="CrRhmm2XXAZZn54EKV6A-13" value="&lt;b&gt;TGI routine&lt;br&gt;&lt;/b&gt;essentially NoOp" style="rounded=0;whiteSpace=wrap;html=1;shadow=1;fillColor=#dae8fc;strokeColor=#6c8ebf;" vertex="1" parent="1">
          <mxGeometry x="380" y="165" width="200" height="60" as="geometry" />
        </mxCell>
        <mxCell id="CrRhmm2XXAZZn54EKV6A-16" value="" style="edgeStyle=orthogonalEdgeStyle;rounded=0;orthogonalLoop=1;jettySize=auto;html=1;entryX=0;entryY=0.5;entryDx=0;entryDy=0;" edge="1" parent="1" source="CrRhmm2XXAZZn54EKV6A-2" target="CrRhmm2XXAZZn54EKV6A-13">
          <mxGeometry relative="1" as="geometry">
            <mxPoint x="305" y="195" as="sourcePoint" />
            <mxPoint x="380" y="195" as="targetPoint" />
            <Array as="points" />
          </mxGeometry>
        </mxCell>
        <mxCell id="CrRhmm2XXAZZn54EKV6A-18" value="&lt;span style=&quot;color: rgb(51, 51, 51); font-family: Helvetica; font-size: 12px; font-style: normal; font-variant-ligatures: normal; font-variant-caps: normal; font-weight: 400; letter-spacing: normal; orphans: 2; text-align: center; text-indent: 0px; text-transform: none; widows: 2; word-spacing: 0px; -webkit-text-stroke-width: 0px; background-color: rgb(251, 251, 251); text-decoration-thickness: initial; text-decoration-style: initial; text-decoration-color: initial; float: none; display: inline !important;&quot;&gt;Address of ISR is stored as IRQ vector in $FFFE-$FFFF&lt;/span&gt;" style="text;whiteSpace=wrap;html=1;" vertex="1" parent="1">
          <mxGeometry x="145" y="235" width="170" height="40" as="geometry" />
        </mxCell>
        <mxCell id="CrRhmm2XXAZZn54EKV6A-19" value="&lt;b&gt;Upload transfer routine&lt;/b&gt;&lt;br&gt;&lt;div style=&quot;text-align: left;&quot;&gt;&lt;span style=&quot;background-color: initial;&quot;&gt;Receives header&lt;/span&gt;&lt;/div&gt;&lt;div style=&quot;text-align: left;&quot;&gt;&lt;span style=&quot;background-color: initial;&quot;&gt;Loads code and data&amp;nbsp;&lt;/span&gt;&lt;/div&gt;&lt;div style=&quot;text-align: left;&quot;&gt;&lt;span style=&quot;background-color: initial;&quot;&gt;Jumps to run address&amp;nbsp;&lt;/span&gt;&lt;/div&gt;" style="rounded=0;whiteSpace=wrap;html=1;" vertex="1" parent="1">
          <mxGeometry x="620" y="230" width="200" height="90" as="geometry" />
        </mxCell>
      </root>
    </mxGraphModel>
  </diagram>
</mxfile>
